<svg width="24" height="25" viewBox="0 0 24 25" fill="none" xmlns="http://www.w3.org/2000/svg">
<path d="M22.0014 17.42V20.42C22.0025 20.6985 21.9455 20.9741 21.8339 21.2293C21.7223 21.4845 21.5587 21.7136 21.3535 21.9018C21.1483 22.0901 20.906 22.2335 20.6421 22.3227C20.3783 22.4119 20.0988 22.445 19.8214 22.42C16.7442 22.0856 13.7884 21.0341 11.1914 19.35C8.77523 17.8146 6.72673 15.7661 5.1914 13.35C3.50138 10.7412 2.44964 7.77097 2.1214 4.67997C2.09641 4.40344 2.12927 4.12474 2.2179 3.8616C2.30652 3.59846 2.44897 3.35666 2.63616 3.1516C2.82336 2.94653 3.0512 2.78268 3.30519 2.6705C3.55917 2.55831 3.83374 2.50024 4.1114 2.49997H7.1114C7.5967 2.4952 8.06719 2.66705 8.43516 2.98351C8.80313 3.29996 9.04348 3.73942 9.1114 4.21997C9.23802 5.18004 9.47285 6.1227 9.8114 7.02997C9.94594 7.3879 9.97506 7.77689 9.8953 8.15086C9.81555 8.52482 9.63026 8.86809 9.3614 9.13998L8.0914 10.41C9.51495 12.9135 11.5879 14.9864 14.0914 16.41L15.3614 15.14C15.6333 14.8711 15.9766 14.6858 16.3505 14.6061C16.7245 14.5263 17.1135 14.5554 17.4714 14.69C18.3787 15.0285 19.3213 15.2634 20.2814 15.39C20.7672 15.4585 21.2108 15.7032 21.5279 16.0775C21.8451 16.4518 22.0136 16.9296 22.0014 17.42Z" stroke="#925407" stroke-width="2" stroke-linecap="round" stroke-linejoin="round"/>
</svg>
