<svg width="171" height="40" viewBox="0 0 171 40" fill="none" xmlns="http://www.w3.org/2000/svg">
<path d="M16.5962 1.59424H0.144043V8.02351H16.5962V1.59424Z" fill="white"/>
<path d="M16.5962 11.1465H0.144043V17.5758H16.5962V11.1465Z" fill="white"/>
<path d="M16.5962 20.6992H0.144043V27.1285H16.5962V20.6992Z" fill="white"/>
<path d="M39.961 1.59424H30.8136L19.2227 14.296L30.8398 27.0892H39.961L27.9518 14.5312L39.961 1.59424Z" fill="white"/>
<path d="M70.37 27.2722H66.2929V16.021H55.8911V27.2722H51.814V1.18921H55.8911V12.3228H66.2929V1.18921H70.37V27.2722Z" fill="white"/>
<path d="M82.9542 26.2528C81.373 25.5863 80.0009 24.6324 78.8117 23.4432C77.6226 22.2541 76.6686 20.882 76.0022 19.3008C75.3357 17.7196 74.9829 15.9947 74.9829 14.2436C74.9829 12.4926 75.3357 10.7676 76.0022 9.14726C76.6686 7.60528 77.6226 6.23318 78.8117 5.00482C80.0009 3.8026 81.373 2.90094 82.9542 2.22142C84.5353 1.55497 86.2603 1.20215 88.0113 1.20215C89.7624 1.20215 91.4873 1.55497 93.1077 2.22142C94.6497 2.88787 96.0218 3.8026 97.2501 5.00482C98.4393 6.23318 99.354 7.60528 100.02 9.14726C100.687 10.7676 101.04 12.4926 101.04 14.2436C101.04 15.9947 100.687 17.7196 100.02 19.3008C99.354 20.882 98.4393 22.2541 97.2501 23.4432C96.0218 24.6455 94.6497 25.5863 93.1077 26.2528C91.4873 26.9192 89.7624 27.2721 88.0113 27.2721C86.2603 27.2721 84.5353 26.9192 82.9542 26.2528ZM81.6997 7.90584C80.0139 9.59156 79.06 11.8392 79.06 14.2306C79.06 16.6219 80.0139 18.8696 81.6997 20.5553C83.3854 22.241 85.633 23.195 88.0244 23.195C90.4158 23.195 92.6634 22.2541 94.3491 20.5553C96.0349 18.8696 96.9888 16.6219 96.9888 14.2306C96.9888 11.8392 96.0349 9.59156 94.3491 7.90584C92.6634 6.22012 90.4158 5.26618 88.0244 5.26618C85.633 5.26618 83.3854 6.22012 81.6997 7.90584Z" fill="white"/>
<path d="M125.659 27.2721V13.4205L117.505 25.5733L109.311 13.4205V27.2721H105.234V0L117.505 18.2685L129.775 0V27.2721H125.659Z" fill="white"/>
<path d="M170.716 21.8099C169.984 24.345 167.698 26.3444 164.849 26.9063C164.326 27.0108 163.79 27.05 163.268 27.05C162.209 27.05 161.164 26.8802 160.171 26.4881C158.524 25.8217 157.074 24.724 155.845 23.1428L159.073 20.6077C159.805 21.5878 160.693 22.2934 161.634 22.6463C162.405 22.9599 163.255 23.0383 164.026 22.8553C165.358 22.6071 166.456 21.7315 166.77 20.673C167.123 19.4839 166.312 18.4254 165.581 17.7198C164.418 16.6351 162.523 14.7665 162.379 14.6358L159.177 11.6172C158.197 10.6632 157.531 9.60476 157.178 8.49401C156.825 7.4094 156.786 6.24638 157.113 5.18791C157.426 4.06409 158.093 3.08402 159.047 2.27382C159.922 1.54204 161.02 1.00627 162.17 0.797183C163.438 0.522763 164.77 0.614237 166.038 1.0716C167.371 1.59431 168.573 2.48291 169.592 3.71126L166.391 6.27252C165.058 4.65213 163.686 4.65213 162.941 4.79588C162.026 4.96576 161.255 5.56686 161.046 6.31172C160.902 6.80829 160.942 7.60541 162.026 8.66389L166.391 12.8455C167.018 13.4728 167.802 14.2176 168.364 14.7403C169.488 15.7596 170.259 16.9226 170.651 18.151C171.043 19.3401 171.069 20.6077 170.716 21.8099Z" fill="white"/>
<path d="M150.867 0.587891H135.957V4.69112H150.867V0.587891Z" fill="white"/>
<path d="M150.867 11.4734H135.957V15.5766H150.867V11.4734Z" fill="white"/>
<path d="M150.867 22.5808H135.957V26.684H150.867V22.5808Z" fill="white"/>
<path d="M3.34531 35.4915H2.02548V39.1635H1.3329V35.4915H0V34.9165H3.34531V35.4915Z" fill="white"/>
<path d="M8.54606 39.1635H7.93188C7.81428 39.1635 7.7228 39.1112 7.67053 39.0197L6.67739 37.5823C6.63819 37.53 6.61206 37.5039 6.57285 37.4778C6.53365 37.4516 6.46831 37.4516 6.38991 37.4516H6.01094V39.1635H5.31836V34.9165H6.57285C6.84727 34.9165 7.09556 34.9426 7.29157 35.008C7.48759 35.0602 7.65746 35.1517 7.78814 35.2563C7.91882 35.3608 8.01029 35.4915 8.07563 35.6352C8.14097 35.779 8.1671 35.9488 8.1671 36.1318C8.1671 36.3147 8.14096 36.4193 8.10176 36.55C8.06256 36.6806 7.99722 36.7982 7.90575 36.9028C7.82734 37.0073 7.7228 37.0988 7.59213 37.1772C7.47452 37.2556 7.33078 37.3079 7.17396 37.3602C7.25237 37.4124 7.33077 37.4778 7.39611 37.5692L8.54606 39.1896V39.1635ZM6.54672 36.9551C6.70353 36.9551 6.84727 36.942 6.96488 36.9028C7.08249 36.8636 7.18703 36.8113 7.26543 36.746C7.34384 36.6806 7.40918 36.5892 7.44838 36.4977C7.48758 36.4062 7.51372 36.3017 7.51372 36.1841C7.51372 35.9488 7.43531 35.779 7.2785 35.6483C7.12169 35.5307 6.88648 35.4653 6.58592 35.4653H6.02401V36.9681H6.57285L6.54672 36.9551Z" fill="white"/>
<path d="M13.9962 39.1636H13.4604C13.395 39.1636 13.3558 39.1505 13.3166 39.1113C13.2774 39.0852 13.2513 39.046 13.2252 38.9937L12.8723 38.0529H11.0429L10.6901 38.9937C10.677 39.0329 10.6508 39.0721 10.6116 39.0983C10.5724 39.1375 10.5202 39.1505 10.4679 39.1505H9.93213L11.6179 34.9036H12.3235L14.0092 39.1505L13.9962 39.1636ZM12.6894 37.5694L12.1014 36.0143C12.0491 35.8967 12.0099 35.7399 11.9576 35.5569C11.9315 35.6484 11.9184 35.7399 11.8923 35.8183C11.8661 35.8967 11.84 35.962 11.8269 36.0274L11.2389 37.5824H12.6894V37.5694Z" fill="white"/>
<path d="M19.3798 34.9165V39.1635H19.027C18.9747 39.1635 18.9225 39.1635 18.8963 39.1373C18.8571 39.1243 18.8179 39.0851 18.7918 39.0459L16.4527 36.0403C16.4527 36.0926 16.4527 36.1579 16.4657 36.2102C16.4657 36.2625 16.4657 36.3147 16.4657 36.367V39.1635H15.8516V34.9165H16.2175C16.2436 34.9165 16.2697 34.9165 16.2959 34.9165C16.322 34.9165 16.3351 34.9165 16.3481 34.9296C16.3612 34.9296 16.3873 34.9557 16.4004 34.9688C16.4135 34.9818 16.4265 35.008 16.4527 35.0341L18.7918 38.0397C18.7918 37.9743 18.7918 37.9221 18.7787 37.8567C18.7787 37.7914 18.7787 37.7391 18.7787 37.6868V34.9165H19.3798Z" fill="white"/>
<path d="M23.9925 35.6353C23.9664 35.6745 23.9533 35.7006 23.9272 35.7137C23.901 35.7267 23.8749 35.7398 23.8357 35.7398C23.7965 35.7398 23.7573 35.7267 23.705 35.6875C23.6528 35.6614 23.6005 35.6222 23.5352 35.583C23.4698 35.5438 23.3914 35.5046 23.2999 35.4785C23.2085 35.4523 23.0909 35.4262 22.9732 35.4262C22.8556 35.4262 22.7511 35.4393 22.6596 35.4654C22.5682 35.4915 22.4897 35.5307 22.4375 35.583C22.3721 35.6353 22.3329 35.7006 22.2937 35.7659C22.2676 35.8443 22.2415 35.9097 22.2415 36.0012C22.2415 36.0926 22.2676 36.1972 22.3329 36.2756C22.3983 36.354 22.4636 36.4063 22.5551 36.4585C22.6466 36.5108 22.7511 36.55 22.8818 36.5892C22.9994 36.6284 23.1301 36.6676 23.2477 36.7068C23.3783 36.746 23.496 36.7983 23.6136 36.8506C23.7312 36.9028 23.8357 36.9812 23.9403 37.0596C24.0317 37.138 24.1101 37.2426 24.1624 37.3733C24.2147 37.4909 24.2539 37.6477 24.2539 37.8176C24.2539 37.9874 24.2277 38.1834 24.1624 38.3533C24.0971 38.5232 24.0056 38.667 23.8749 38.7846C23.7573 38.9022 23.6005 39.0067 23.4175 39.072C23.2346 39.1374 23.0386 39.1766 22.8034 39.1766C22.5682 39.1766 22.5289 39.1635 22.4113 39.1374C22.2807 39.1113 22.1631 39.072 22.0454 39.0198C21.9278 38.9675 21.8233 38.9152 21.7188 38.8499C21.6142 38.7846 21.5227 38.7062 21.4443 38.6147L21.6404 38.288C21.6534 38.2619 21.6796 38.2357 21.7057 38.2227C21.7318 38.2096 21.758 38.1965 21.7972 38.1965C21.8364 38.1965 21.8886 38.2227 21.954 38.2619C22.0062 38.3011 22.0716 38.3533 22.15 38.4056C22.2284 38.4579 22.3199 38.4971 22.4375 38.5493C22.542 38.5885 22.6858 38.6147 22.8295 38.6147C23.0778 38.6147 23.2738 38.5493 23.4045 38.4317C23.5352 38.3141 23.6136 38.1442 23.6136 37.9221C23.6136 37.6999 23.5874 37.6999 23.5221 37.6346C23.4698 37.5562 23.3914 37.4909 23.2999 37.4386C23.2085 37.3863 23.1039 37.3471 22.9732 37.3079C22.8556 37.2687 22.725 37.2295 22.6074 37.1903C22.4897 37.1511 22.3591 37.0988 22.2415 37.0466C22.1239 36.9943 22.0193 36.9159 21.9148 36.8375C21.8233 36.746 21.7449 36.6415 21.6926 36.5108C21.6403 36.3801 21.6011 36.2233 21.6011 36.0273C21.6011 35.8313 21.6273 35.7267 21.6926 35.583C21.758 35.4392 21.8364 35.3086 21.954 35.204C22.0716 35.0864 22.2153 35.008 22.3852 34.9427C22.5551 34.8773 22.7511 34.8381 22.9602 34.8381C23.1693 34.8381 23.4306 34.8773 23.6266 34.9557C23.8357 35.0342 24.0056 35.1387 24.1493 35.2824L23.9795 35.6091L23.9925 35.6353Z" fill="white"/>
<path d="M27.0627 35.4788V36.8378H28.7223V37.3997H27.0627V39.1769H26.3701V34.9299H29.0228V35.4918H27.0627V35.4788Z" fill="white"/>
<path d="M35.0341 37.0336C35.0341 37.3472 34.9818 37.6347 34.8773 37.9091C34.7727 38.1705 34.629 38.4057 34.446 38.6017C34.2631 38.7977 34.0409 38.9415 33.7796 39.046C33.5182 39.1506 33.2307 39.2028 32.9041 39.2028C32.5774 39.2028 32.303 39.1506 32.0416 39.046C31.7802 38.9415 31.5581 38.7847 31.3752 38.6017C31.1922 38.4057 31.0485 38.1836 30.9439 37.9091C30.8394 37.6478 30.7871 37.3472 30.7871 37.0336C30.7871 36.72 30.8394 36.4325 30.9439 36.1581C31.0485 35.8967 31.1922 35.6615 31.3752 35.4655C31.5581 35.2695 31.7802 35.1257 32.0416 35.0081C32.303 34.9036 32.5904 34.8513 32.9041 34.8513C33.2177 34.8513 33.5182 34.9036 33.7796 35.0081C34.0409 35.1127 34.2631 35.2695 34.446 35.4655C34.629 35.6615 34.7727 35.8837 34.8773 36.1581C34.9818 36.4194 35.0341 36.72 35.0341 37.0336ZM34.3284 37.0336C34.3284 36.7853 34.2892 36.5762 34.2239 36.3802C34.1586 36.1842 34.0671 36.0143 33.9364 35.8837C33.8057 35.753 33.662 35.6484 33.4921 35.57C33.3222 35.4916 33.1262 35.4655 32.9041 35.4655C32.6819 35.4655 32.4859 35.5047 32.316 35.57C32.1461 35.6484 31.9893 35.753 31.8717 35.8837C31.7541 36.0143 31.6496 36.1842 31.5842 36.3802C31.5189 36.5762 31.4797 36.7984 31.4797 37.0336C31.4797 37.2688 31.5189 37.504 31.5842 37.7001C31.6496 37.8961 31.741 38.066 31.8717 38.1966C31.9893 38.3273 32.1461 38.4318 32.316 38.5103C32.4859 38.5756 32.6819 38.6148 32.9041 38.6148C33.1262 38.6148 33.3222 38.5756 33.4921 38.5103C33.662 38.4318 33.8188 38.3404 33.9364 38.1966C34.054 38.066 34.1586 37.8961 34.2239 37.7001C34.2892 37.504 34.3284 37.2819 34.3284 37.0336Z" fill="white"/>
<path d="M40.405 39.1635H39.7908C39.6732 39.1635 39.5817 39.1112 39.5294 39.0197L38.5363 37.5823C38.4971 37.53 38.4709 37.5039 38.4317 37.4778C38.3925 37.4516 38.3272 37.4516 38.2488 37.4516H37.8698V39.1635H37.1772V34.9165H38.4317C38.7062 34.9165 38.9544 34.9426 39.1505 35.008C39.3465 35.0602 39.5164 35.1517 39.647 35.2563C39.7777 35.3608 39.8692 35.4915 39.9345 35.6352C39.9999 35.779 40.026 35.9488 40.026 36.1318C40.026 36.3147 39.9999 36.4193 39.9606 36.55C39.9214 36.6806 39.8561 36.7982 39.7646 36.9028C39.6862 37.0073 39.5817 37.0988 39.451 37.1772C39.3334 37.2556 39.1897 37.3079 39.0329 37.3602C39.1113 37.4124 39.1897 37.4778 39.255 37.5692L40.405 39.1896V39.1635ZM38.4056 36.9551C38.5624 36.9551 38.7062 36.942 38.8238 36.9028C38.9414 36.8636 39.0459 36.8113 39.1243 36.746C39.2027 36.6806 39.2681 36.5892 39.3073 36.4977C39.3465 36.4062 39.3726 36.3017 39.3726 36.1841C39.3726 35.9488 39.2942 35.779 39.1374 35.6483C38.9806 35.5307 38.7454 35.4653 38.4448 35.4653H37.8829V36.9681H38.4317L38.4056 36.9551Z" fill="white"/>
<path d="M46.821 34.9168V39.1637H46.2068V36.2497C46.2068 36.1974 46.2068 36.1451 46.2068 36.0928C46.2068 36.0406 46.2068 35.9752 46.2199 35.923L44.8478 38.445C44.7955 38.5496 44.7171 38.6018 44.5995 38.6018H44.508C44.3904 38.6018 44.312 38.5496 44.2597 38.445L42.8746 35.9099C42.8746 35.9622 42.8745 36.0275 42.8876 36.0798C42.8876 36.132 42.8876 36.1843 42.8876 36.2366V39.1507H42.2734V34.9037H42.7961C42.8615 34.9037 42.9007 34.9037 42.9399 34.9168C42.9791 34.9168 43.0052 34.956 43.0314 35.0213L44.3904 37.4911C44.4165 37.5434 44.4427 37.6087 44.4688 37.661C44.4949 37.7263 44.5211 37.7786 44.5472 37.8439C44.5733 37.7786 44.5995 37.7132 44.6256 37.661C44.6517 37.5956 44.6779 37.5434 44.704 37.478L46.05 35.0082C46.0761 34.956 46.1023 34.9168 46.1415 34.9037C46.1807 34.9037 46.2199 34.8906 46.2852 34.8906H46.8079L46.821 34.9168Z" fill="white"/>
<path d="M49.9055 39.1635H49.2129V34.9165H49.9055V39.1635Z" fill="white"/>
<path d="M55.812 34.9165V39.1635H55.4591C55.4069 39.1635 55.3546 39.1635 55.3284 39.1373C55.2892 39.1243 55.25 39.0851 55.2239 39.0459L52.8848 36.0403C52.8848 36.0926 52.8848 36.1579 52.8979 36.2102C52.8979 36.2625 52.8979 36.3147 52.8979 36.367V39.1635H52.2837V34.9165H52.6496C52.6757 34.9165 52.7019 34.9165 52.728 34.9165C52.7541 34.9165 52.7672 34.9165 52.7803 34.9296C52.7933 34.9296 52.8195 34.9557 52.8325 34.9688C52.8456 34.9818 52.8587 35.008 52.8848 35.0341L55.2239 38.0397C55.2239 37.9743 55.2239 37.9221 55.2108 37.8567C55.2108 37.7914 55.2108 37.7391 55.2108 37.6868V34.9165H55.812Z" fill="white"/>
<path d="M61.6791 37.0728V38.7585C61.261 39.0591 60.7644 39.2159 60.2025 39.2159C59.6406 39.2159 59.5491 39.1636 59.2616 39.0591C58.9872 38.9545 58.752 38.7977 58.5429 38.6148C58.3469 38.4188 58.1901 38.1966 58.0855 37.9222C57.981 37.6608 57.9287 37.3603 57.9287 37.0467C57.9287 36.733 57.981 36.4325 58.0855 36.1711C58.1901 35.9098 58.3338 35.6746 58.5298 35.4785C58.7258 35.2825 58.948 35.1388 59.2224 35.0342C59.4968 34.9297 59.7974 34.8774 60.1371 34.8774C60.4769 34.8774 60.4638 34.8905 60.6076 34.9166C60.7513 34.9428 60.8951 34.982 61.0127 35.0212C61.1434 35.0735 61.261 35.1257 61.3655 35.1911C61.47 35.2564 61.5746 35.3348 61.653 35.4132L61.457 35.7268C61.4308 35.7791 61.3786 35.8052 61.3394 35.8183C61.2871 35.8183 61.2348 35.8183 61.1826 35.7791C61.1303 35.7399 61.0649 35.7138 60.9996 35.6746C60.9343 35.6354 60.8559 35.5962 60.7775 35.57C60.6991 35.5439 60.5945 35.5047 60.49 35.4916C60.3854 35.4655 60.2548 35.4655 60.111 35.4655C59.8889 35.4655 59.6798 35.5047 59.5099 35.57C59.327 35.6484 59.1701 35.753 59.0525 35.8836C58.9219 36.0143 58.8304 36.1842 58.752 36.3802C58.6866 36.5762 58.6474 36.7984 58.6474 37.0336C58.6474 37.2688 58.6866 37.5171 58.752 37.7131C58.8304 37.9091 58.9219 38.079 59.0656 38.2228C59.1963 38.3665 59.3662 38.471 59.5491 38.5364C59.7451 38.6148 59.9542 38.6409 60.1894 38.6409C60.4246 38.6409 60.5161 38.6278 60.6598 38.5886C60.7905 38.5494 60.9343 38.4972 61.0649 38.4318V37.5824H60.4769C60.4377 37.5824 60.3985 37.5824 60.3724 37.5432C60.3462 37.5171 60.3332 37.491 60.3332 37.4518V37.0597H61.6922L61.6791 37.0728Z" fill="white"/>
<path d="M68.9442 35.6353C68.918 35.6745 68.905 35.7006 68.8788 35.7137C68.8527 35.7267 68.8266 35.7398 68.7874 35.7398C68.7482 35.7398 68.709 35.7267 68.6567 35.6875C68.6044 35.6614 68.5522 35.6222 68.4868 35.583C68.4215 35.5438 68.3431 35.5046 68.2516 35.4785C68.1601 35.4523 68.0425 35.4262 67.9249 35.4262C67.8073 35.4262 67.7028 35.4393 67.6113 35.4654C67.5198 35.4915 67.4414 35.5307 67.3891 35.583C67.3238 35.6353 67.2846 35.7006 67.2454 35.7659C67.2193 35.8443 67.1931 35.9097 67.1931 36.0012C67.1931 36.0926 67.2193 36.1972 67.2846 36.2756C67.3369 36.354 67.4153 36.4063 67.5067 36.4585C67.5982 36.5108 67.7028 36.55 67.8334 36.5892C67.951 36.6284 68.0817 36.6676 68.1993 36.7068C68.33 36.746 68.4476 36.7983 68.5652 36.8506C68.6828 36.9028 68.7874 36.9812 68.8919 37.0596C68.9834 37.138 69.0618 37.2426 69.1141 37.3733C69.1663 37.4909 69.2055 37.6477 69.2055 37.8176C69.2055 37.9874 69.1794 38.1834 69.1141 38.3533C69.0487 38.5232 68.9572 38.667 68.8266 38.7846C68.709 38.9022 68.5522 39.0067 68.3692 39.072C68.1863 39.1374 67.9902 39.1766 67.755 39.1766C67.5198 39.1766 67.4806 39.1635 67.363 39.1374C67.2323 39.1113 67.1147 39.072 66.9971 39.0198C66.8795 38.9675 66.775 38.9152 66.6704 38.8499C66.5659 38.7846 66.4744 38.7062 66.396 38.6147L66.592 38.288C66.6051 38.2619 66.6312 38.2357 66.6573 38.2227C66.6835 38.2096 66.7096 38.1965 66.7488 38.1965C66.788 38.1965 66.8403 38.2227 66.9056 38.2619C66.9579 38.3011 67.0232 38.3533 67.1016 38.4056C67.18 38.4579 67.2715 38.4971 67.3891 38.5493C67.4937 38.5885 67.6374 38.6147 67.7812 38.6147C68.0294 38.6147 68.2255 38.5493 68.3561 38.4317C68.4868 38.3141 68.5652 38.1442 68.5652 37.9221C68.5652 37.6999 68.5391 37.6999 68.4737 37.6346C68.4215 37.5562 68.3431 37.4909 68.2516 37.4386C68.1601 37.3863 68.0556 37.3471 67.9249 37.3079C67.8073 37.2687 67.6766 37.2295 67.559 37.1903C67.4414 37.1511 67.3107 37.0988 67.1931 37.0466C67.0755 36.9943 66.971 36.9159 66.8664 36.8375C66.775 36.746 66.6965 36.6415 66.6443 36.5108C66.592 36.3801 66.5528 36.2233 66.5528 36.0273C66.5528 35.8313 66.5789 35.7267 66.6443 35.583C66.7096 35.4392 66.788 35.3086 66.9056 35.204C67.0232 35.0864 67.167 35.008 67.3369 34.9427C67.5067 34.8773 67.7028 34.8381 67.9118 34.8381C68.1209 34.8381 68.3823 34.8773 68.5783 34.9557C68.7874 35.0342 68.9572 35.1387 69.101 35.2824L68.9311 35.6091L68.9442 35.6353Z" fill="white"/>
<path d="M72.6299 34.9165C72.9043 34.9165 73.1526 34.9426 73.3486 35.008C73.5577 35.0733 73.7145 35.1648 73.8582 35.2824C73.9889 35.4 74.0935 35.5437 74.1588 35.7006C74.2241 35.8704 74.2503 36.0403 74.2503 36.2494C74.2503 36.4585 74.2111 36.6414 74.1457 36.8113C74.0804 36.9812 73.9759 37.1249 73.8452 37.2425C73.7145 37.3601 73.5446 37.4516 73.3355 37.53C73.1395 37.5954 72.9043 37.6346 72.6299 37.6346H72.0026V39.1765H71.3101V34.9296H72.6299V34.9165ZM72.6299 37.0857C72.7867 37.0857 72.9174 37.0727 73.035 37.0204C73.1526 36.9812 73.2441 36.9289 73.3225 36.8505C73.4009 36.7852 73.4532 36.6937 73.4924 36.5892C73.5316 36.4846 73.5577 36.367 73.5577 36.2494C73.5577 36.1318 73.5446 36.0142 73.5054 35.9096C73.4662 35.8051 73.4139 35.7267 73.3355 35.6614C73.2571 35.596 73.1657 35.5437 73.0481 35.5045C72.9304 35.4653 72.7998 35.4523 72.6299 35.4523H72.0026V37.0727H72.6299V37.0857Z" fill="white"/>
<path d="M79.5557 39.1636H79.02C78.9546 39.1636 78.9154 39.1505 78.8762 39.1113C78.837 39.0852 78.8109 39.046 78.7847 38.9937L78.4319 38.0529H76.6024L76.2496 38.9937C76.2366 39.0329 76.2104 39.0721 76.1712 39.0983C76.132 39.1375 76.0797 39.1505 76.0275 39.1505H75.4917L77.1774 34.9036H77.8831L79.5688 39.1505L79.5557 39.1636ZM78.249 37.5694L77.6609 36.0143C77.6087 35.8967 77.5695 35.7399 77.5172 35.5569C77.491 35.6484 77.478 35.7399 77.4518 35.8183C77.4257 35.8967 77.3996 35.962 77.3865 36.0274L76.7985 37.5824H78.249V37.5694Z" fill="white"/>
<path d="M84.2605 38.2228C84.2997 38.2228 84.3259 38.2358 84.352 38.262L84.6264 38.5625C84.4566 38.7716 84.2344 38.9284 83.9861 39.046C83.7378 39.1636 83.4373 39.2159 83.0844 39.2159C82.7316 39.2159 82.4964 39.1636 82.235 39.0591C81.9868 38.9545 81.7646 38.7977 81.5947 38.6148C81.4118 38.4188 81.2811 38.1966 81.1896 37.9222C81.0982 37.6608 81.0459 37.3603 81.0459 37.0467C81.0459 36.733 81.0982 36.4325 81.2027 36.1711C81.3073 35.9098 81.451 35.6746 81.6339 35.4785C81.8169 35.2825 82.039 35.1388 82.3004 35.0342C82.5617 34.9297 82.8362 34.8774 83.1498 34.8774C83.4634 34.8774 83.7248 34.9297 83.96 35.0212C84.1952 35.1257 84.4043 35.2564 84.5742 35.4132L84.352 35.7399C84.3389 35.766 84.3128 35.7791 84.2997 35.7922C84.2736 35.8052 84.2475 35.8183 84.2083 35.8183C84.1691 35.8183 84.1299 35.8052 84.0776 35.766C84.0253 35.7268 83.96 35.6876 83.8816 35.6484C83.8032 35.6092 83.7117 35.57 83.5941 35.5308C83.4765 35.4916 83.3327 35.4785 83.1498 35.4785C82.9668 35.4785 82.7578 35.5178 82.5879 35.5831C82.418 35.6484 82.2743 35.753 82.1566 35.8967C82.039 36.0274 81.9345 36.1973 81.8692 36.3933C81.8038 36.5893 81.7646 36.8114 81.7646 37.0597C81.7646 37.308 81.8038 37.5302 81.8692 37.7262C81.9345 37.9222 82.039 38.0921 82.1566 38.2228C82.2743 38.3534 82.4311 38.458 82.5879 38.5364C82.7578 38.6017 82.9407 38.6409 83.1237 38.6409C83.3066 38.6409 83.3458 38.6409 83.4373 38.6278C83.5287 38.6278 83.6202 38.5886 83.6986 38.5625C83.777 38.5364 83.8554 38.4972 83.9208 38.458C83.9861 38.4188 84.0645 38.3665 84.1299 38.3012C84.1691 38.262 84.2083 38.2489 84.2475 38.2489L84.2605 38.2228Z" fill="white"/>
<path d="M89.2655 38.6016V39.1635H86.6128V34.9165H89.2655V35.4784H87.3054V36.759H88.8735V37.2948H87.3054V38.6146H89.2655V38.6016Z" fill="white"/>
<path d="M93.617 35.6353C93.5909 35.6745 93.5778 35.7006 93.5517 35.7137C93.5256 35.7267 93.4994 35.7398 93.4602 35.7398C93.421 35.7398 93.3818 35.7267 93.3295 35.6875C93.2773 35.6614 93.225 35.6222 93.1597 35.583C93.0943 35.5438 93.0159 35.5046 92.9245 35.4785C92.833 35.4523 92.7154 35.4262 92.5978 35.4262C92.4802 35.4262 92.3756 35.4393 92.2841 35.4654C92.1927 35.4915 92.1143 35.5307 92.062 35.583C92.0097 35.6353 91.9574 35.7006 91.9182 35.7659C91.8921 35.8443 91.866 35.9097 91.866 36.0012C91.866 36.0926 91.8921 36.1972 91.9574 36.2756C92.0097 36.354 92.0881 36.4063 92.1796 36.4585C92.2711 36.5108 92.3756 36.55 92.5063 36.5892C92.6239 36.6284 92.7546 36.6676 92.8722 36.7068C93.0029 36.746 93.1205 36.7983 93.2381 36.8506C93.3557 36.9028 93.4602 36.9812 93.5648 37.0596C93.6562 37.138 93.7346 37.2426 93.7869 37.3733C93.8392 37.4909 93.8784 37.6477 93.8784 37.8176C93.8784 37.9874 93.8523 38.1834 93.7869 38.3533C93.7216 38.5232 93.6301 38.667 93.4994 38.7846C93.3818 38.9022 93.225 39.0067 93.0421 39.072C92.8591 39.1374 92.6631 39.1766 92.4279 39.1766C92.1927 39.1766 92.1535 39.1635 92.0358 39.1374C91.9052 39.1113 91.7876 39.072 91.67 39.0198C91.5523 38.9675 91.4478 38.9152 91.3433 38.8499C91.2387 38.7846 91.1473 38.7062 91.0688 38.6147L91.2649 38.288C91.2779 38.2619 91.3041 38.2357 91.3302 38.2227C91.3563 38.2096 91.3825 38.1965 91.4217 38.1965C91.4609 38.1965 91.5131 38.2227 91.5785 38.2619C91.6308 38.3011 91.6961 38.3533 91.7745 38.4056C91.8529 38.4579 91.9444 38.4971 92.062 38.5493C92.1665 38.5885 92.3103 38.6147 92.454 38.6147C92.7023 38.6147 92.8983 38.5493 93.029 38.4317C93.1597 38.3141 93.2381 38.1442 93.2381 37.9221C93.2381 37.6999 93.2119 37.6999 93.1466 37.6346C93.0943 37.5562 93.0159 37.4909 92.9245 37.4386C92.833 37.3863 92.7284 37.3471 92.5978 37.3079C92.4802 37.2687 92.3495 37.2295 92.2319 37.1903C92.1143 37.1511 91.9836 37.0988 91.866 37.0466C91.7484 36.9943 91.6438 36.9159 91.5393 36.8375C91.4478 36.746 91.3694 36.6415 91.3171 36.5108C91.2649 36.3801 91.2257 36.2233 91.2257 36.0273C91.2257 35.8313 91.2518 35.7267 91.3171 35.583C91.3825 35.4392 91.4609 35.3086 91.5785 35.204C91.6961 35.0864 91.8398 35.008 92.0097 34.9427C92.1796 34.8773 92.3756 34.8381 92.5847 34.8381C92.7938 34.8381 93.0551 34.8773 93.2511 34.9557C93.4602 35.0342 93.6301 35.1387 93.7738 35.2824L93.604 35.6091L93.617 35.6353Z" fill="white"/>
<path d="M96.1514 39.1636C96.0992 39.1636 96.0469 39.1636 95.9946 39.1374C95.9423 39.1113 95.9031 39.0852 95.877 39.046C95.8378 39.0068 95.8117 38.9676 95.7986 38.9153C95.7855 38.863 95.7725 38.8107 95.7725 38.7585C95.7725 38.7062 95.7725 38.6539 95.7986 38.6147C95.8117 38.5755 95.8378 38.5363 95.877 38.4971C95.9162 38.4579 95.9554 38.4318 95.9946 38.4187C96.0469 38.4056 96.0992 38.3926 96.1514 38.3926C96.2037 38.3926 96.2821 38.3926 96.3344 38.4318C96.3866 38.4579 96.4258 38.4841 96.4651 38.5363C96.5043 38.5755 96.5304 38.6278 96.5435 38.6801C96.5565 38.7323 96.5696 38.7977 96.5696 38.863C96.5696 38.9545 96.5565 39.046 96.5304 39.1505C96.5043 39.255 96.465 39.3465 96.4128 39.4511C96.3605 39.5556 96.2952 39.6471 96.2168 39.7385C96.1384 39.83 96.06 39.9215 95.9554 39.9999L95.8509 39.8954C95.8378 39.8823 95.8247 39.8692 95.8117 39.8562C95.8117 39.8431 95.8117 39.83 95.8117 39.8039C95.8117 39.7647 95.8247 39.7385 95.8639 39.7124C95.8901 39.6863 95.9031 39.6601 95.9423 39.6209C95.9685 39.5817 96.0077 39.5425 96.0338 39.5033C96.0599 39.4641 96.0992 39.4119 96.1253 39.3465C96.1514 39.2942 96.1776 39.2289 96.1776 39.1766H96.1645L96.1514 39.1636Z" fill="white"/>
<path d="M104.227 38.6016V39.1635H101.575V34.9165H104.227V35.4784H102.267V36.759H103.835V37.2948H102.267V38.6146H104.227V38.6016Z" fill="white"/>
<path d="M108.801 38.5885V39.1635H106.344V34.9165H107.037V38.5885H108.801Z" fill="white"/>
<path d="M113.427 38.6016V39.1635H110.774V34.9165H113.427V35.4784H111.467V36.759H113.035V37.2948H111.467V38.6146H113.427V38.6016Z" fill="white"/>
<path d="M119.111 34.9165L117.386 39.1635H116.759L115.034 34.9165H115.583C115.648 34.9165 115.688 34.9296 115.727 34.9688C115.766 34.9949 115.792 35.0341 115.818 35.0864L116.916 37.8567C116.981 38.0135 117.034 38.1965 117.073 38.3925C117.099 38.2879 117.112 38.1965 117.138 38.105C117.164 38.0135 117.19 37.9351 117.216 37.8567L118.314 35.0864C118.327 35.0472 118.353 35.008 118.393 34.9818C118.432 34.9426 118.484 34.9296 118.536 34.9296H119.085L119.111 34.9165Z" fill="white"/>
<path d="M124.208 39.1636H123.672C123.607 39.1636 123.568 39.1505 123.529 39.1113C123.489 39.0721 123.463 39.046 123.437 38.9937L123.084 38.0529H121.255L120.902 38.9937C120.889 39.0329 120.863 39.0721 120.824 39.0983C120.784 39.1375 120.732 39.1505 120.68 39.1505H120.144L121.83 34.9036H122.535L124.221 39.1505L124.208 39.1636ZM122.901 37.5694L122.313 36.0143C122.261 35.8967 122.222 35.7399 122.17 35.5569C122.143 35.6484 122.13 35.7399 122.104 35.8183C122.078 35.8967 122.052 35.962 122.039 36.0274L121.451 37.5824H122.901V37.5694Z" fill="white"/>
<path d="M128.586 35.4915H127.266V39.1635H126.573V35.4915H125.24V34.9165H128.586V35.4915Z" fill="white"/>
<path d="M131.252 39.1635H130.559V34.9165H131.252V39.1635Z" fill="white"/>
<path d="M137.158 34.9165V39.1635H136.805C136.753 39.1635 136.701 39.1635 136.675 39.1373C136.648 39.1112 136.596 39.0851 136.57 39.0459L134.231 36.0403C134.231 36.0926 134.231 36.1579 134.244 36.2102C134.244 36.2625 134.244 36.3147 134.244 36.367V39.1635H133.63V34.9165H133.996C134.022 34.9165 134.048 34.9165 134.074 34.9165C134.1 34.9165 134.113 34.9165 134.126 34.9296C134.14 34.9296 134.166 34.9557 134.179 34.9688C134.192 34.9818 134.205 35.008 134.231 35.0341L136.57 38.0397C136.57 37.9743 136.57 37.9221 136.557 37.8567C136.557 37.7914 136.557 37.7391 136.557 37.6868V34.9165H137.158Z" fill="white"/>
<path d="M143.025 37.0728V38.7585C142.607 39.0591 142.111 39.2159 141.549 39.2159C140.987 39.2159 140.895 39.1636 140.608 39.0591C140.333 38.9545 140.098 38.7977 139.889 38.6148C139.693 38.4188 139.536 38.1966 139.432 37.9222C139.327 37.6608 139.275 37.3603 139.275 37.0467C139.275 36.733 139.327 36.4325 139.432 36.1711C139.536 35.9098 139.68 35.6746 139.876 35.4785C140.072 35.2825 140.294 35.1388 140.569 35.0342C140.843 34.9297 141.144 34.8774 141.483 34.8774C141.823 34.8774 141.81 34.8905 141.954 34.9166C142.098 34.9428 142.241 34.982 142.359 35.0212C142.49 35.0735 142.607 35.1257 142.712 35.1911C142.816 35.2564 142.921 35.3348 142.999 35.4132L142.803 35.7268C142.777 35.7791 142.725 35.8052 142.686 35.8183C142.633 35.8183 142.581 35.8183 142.529 35.7791C142.476 35.7399 142.411 35.7138 142.346 35.6746C142.28 35.6354 142.202 35.5962 142.124 35.57C142.045 35.5439 141.941 35.5047 141.836 35.4916C141.732 35.4655 141.601 35.4655 141.457 35.4655C141.235 35.4655 141.026 35.5047 140.856 35.57C140.673 35.6484 140.516 35.753 140.399 35.8836C140.268 36.0143 140.177 36.1842 140.098 36.3802C140.033 36.5762 139.994 36.7984 139.994 37.0336C139.994 37.2688 140.033 37.5171 140.098 37.7131C140.177 37.9091 140.268 38.079 140.412 38.2228C140.542 38.3665 140.712 38.471 140.895 38.5364C141.078 38.6017 141.3 38.6409 141.536 38.6409C141.771 38.6409 141.862 38.6278 142.006 38.5886C142.137 38.5494 142.28 38.4972 142.411 38.4318V37.5824H141.823C141.784 37.5824 141.745 37.5824 141.719 37.5432C141.692 37.504 141.679 37.491 141.679 37.4518V37.0597H143.038L143.025 37.0728Z" fill="white"/>
<path d="M150.526 38.5885V39.1635H148.069V34.9165H148.761V38.5885H150.526Z" fill="white"/>
<path d="M153.178 39.1635H152.486V34.9165H153.178V39.1635Z" fill="white"/>
<path d="M159.124 34.9165L157.399 39.1635H156.772L155.047 34.9165H155.596C155.661 34.9165 155.7 34.9296 155.739 34.9688C155.779 34.9949 155.805 35.0341 155.831 35.0864L156.929 37.8567C156.994 38.0135 157.046 38.1965 157.085 38.3925C157.112 38.2879 157.125 38.1965 157.151 38.105C157.177 38.0135 157.203 37.9351 157.229 37.8567L158.327 35.0864C158.34 35.0472 158.366 35.008 158.405 34.9818C158.444 34.9426 158.497 34.9296 158.549 34.9296H159.098L159.124 34.9165Z" fill="white"/>
<path d="M163.66 38.6016V39.1635H161.007V34.9165H163.66V35.4784H161.699V36.759H163.268V37.2948H161.699V38.6146H163.66V38.6016Z" fill="white"/>
<path d="M167.997 35.6353C167.971 35.6745 167.958 35.7006 167.932 35.7137C167.905 35.7267 167.879 35.7398 167.84 35.7398C167.801 35.7398 167.762 35.7267 167.709 35.6875C167.657 35.6614 167.605 35.6222 167.54 35.583C167.474 35.5438 167.396 35.5046 167.304 35.4785C167.213 35.4523 167.095 35.4262 166.978 35.4262C166.86 35.4262 166.755 35.4393 166.664 35.4654C166.573 35.4915 166.494 35.5307 166.442 35.583C166.377 35.6353 166.337 35.7006 166.298 35.7659C166.272 35.8443 166.246 35.9097 166.246 36.0012C166.246 36.0926 166.272 36.1972 166.337 36.2756C166.39 36.354 166.468 36.4063 166.559 36.4585C166.651 36.5108 166.755 36.55 166.886 36.5892C167.004 36.6284 167.134 36.6676 167.252 36.7068C167.383 36.746 167.5 36.7983 167.618 36.8506C167.736 36.9028 167.84 36.9812 167.945 37.0596C168.036 37.138 168.115 37.2426 168.167 37.3733C168.219 37.4909 168.258 37.6477 168.258 37.8176C168.258 37.9874 168.232 38.1834 168.167 38.3533C168.101 38.5232 168.01 38.667 167.879 38.7846C167.749 38.9022 167.605 39.0067 167.422 39.072C167.239 39.1374 167.043 39.1766 166.808 39.1766C166.573 39.1766 166.533 39.1635 166.416 39.1374C166.285 39.1113 166.167 39.072 166.05 39.0198C165.932 38.9675 165.828 38.9152 165.723 38.8499C165.619 38.7846 165.527 38.7062 165.449 38.6147L165.645 38.288C165.658 38.2619 165.684 38.2357 165.71 38.2227C165.736 38.2096 165.762 38.1965 165.802 38.1965C165.841 38.1965 165.893 38.2227 165.958 38.2619C166.011 38.3011 166.076 38.3533 166.154 38.4056C166.233 38.4579 166.324 38.4971 166.442 38.5493C166.546 38.5885 166.69 38.6147 166.834 38.6147C167.082 38.6147 167.278 38.5493 167.409 38.4317C167.54 38.3141 167.618 38.1442 167.618 37.9221C167.618 37.6999 167.592 37.6999 167.526 37.6346C167.474 37.5562 167.396 37.4909 167.304 37.4386C167.213 37.3863 167.108 37.3471 166.978 37.3079C166.86 37.2687 166.729 37.2295 166.612 37.1903C166.494 37.1511 166.363 37.0988 166.246 37.0466C166.128 36.9943 166.024 36.9159 165.919 36.8375C165.828 36.746 165.749 36.6415 165.697 36.5108C165.645 36.3801 165.606 36.2233 165.606 36.0273C165.606 35.8313 165.632 35.7267 165.697 35.583C165.762 35.4392 165.841 35.3086 165.958 35.204C166.076 35.0864 166.22 35.008 166.39 34.9427C166.559 34.8773 166.755 34.8381 166.965 34.8381C167.174 34.8381 167.435 34.8773 167.631 34.9557C167.84 35.0342 168.01 35.1387 168.154 35.2824L167.984 35.6091L167.997 35.6353Z" fill="white"/>
<path d="M170.153 38.7977C170.153 38.7454 170.153 38.6931 170.179 38.6409C170.206 38.5886 170.232 38.5494 170.271 38.5102C170.31 38.471 170.349 38.4449 170.402 38.4187C170.454 38.3926 170.506 38.3926 170.558 38.3926C170.611 38.3926 170.663 38.3926 170.715 38.4187C170.767 38.4449 170.807 38.471 170.846 38.5102C170.885 38.5494 170.911 38.5886 170.937 38.6409C170.964 38.6931 170.964 38.7454 170.964 38.7977C170.964 38.8499 170.964 38.9153 170.937 38.9545C170.911 39.0068 170.885 39.046 170.846 39.0852C170.807 39.1244 170.767 39.1505 170.715 39.1766C170.663 39.2028 170.611 39.2028 170.558 39.2028C170.506 39.2028 170.454 39.2028 170.402 39.1766C170.349 39.1505 170.31 39.1244 170.271 39.0852C170.232 39.046 170.206 39.0068 170.179 38.9545C170.153 38.9022 170.153 38.8499 170.153 38.7977Z" fill="white"/>
</svg>
