<svg width="81" height="46" viewBox="0 0 81 46" fill="none" xmlns="http://www.w3.org/2000/svg">
<path d="M7.28736 1.38495H4.43069V10.201H3.00315V1.38495H0.146484V0H7.28578V1.38495H7.28736Z" fill="white"/>
<path d="M14.1343 3.69426C14.7164 4.29209 15.0082 5.18332 15.0082 6.36795V10.201H13.5806V6.36795C13.5806 5.63919 13.4276 5.09341 13.1216 4.72903C12.8156 4.36466 12.3755 4.18325 11.8029 4.18325C11.2303 4.18325 10.7902 4.36308 10.4842 4.72272C10.1782 5.08237 10.0252 5.62184 10.0252 6.33955V10.201H8.59766V0H10.0252V3.56965C10.2492 3.28729 10.5063 3.08854 10.7981 2.97181C11.0899 2.85509 11.4243 2.79672 11.8029 2.79672C12.7746 2.79672 13.5507 3.09485 14.1343 3.69268V3.69426Z" fill="white"/>
<path d="M17.0271 4.68515C17.352 4.10782 17.8 3.6488 18.3679 3.30808C18.9357 2.96894 19.5604 2.79858 20.2402 2.79858C20.8712 2.79858 21.4722 2.94686 22.04 3.24341C22.6079 3.53996 23.0717 3.9627 23.4313 4.51164C23.791 5.06057 23.9802 5.69942 23.9992 6.42817C23.9992 6.67109 23.985 6.89035 23.955 7.08437H18.0682C18.1265 7.62857 18.3568 8.0734 18.7606 8.41727C19.1629 8.76272 19.6566 8.93466 20.2402 8.93466C20.9595 8.93466 21.5416 8.69174 21.988 8.2059L23.6932 8.22009C23.3729 8.85105 22.906 9.35897 22.294 9.74228C21.682 10.1256 21.0116 10.318 20.2828 10.318C19.5935 10.318 18.961 10.1508 18.3884 9.81484C17.8158 9.48043 17.3631 9.02614 17.0334 8.45197C16.7037 7.87938 16.5381 7.25157 16.5381 6.57172C16.5381 5.89186 16.7006 5.26248 17.0255 4.68515H17.0271ZM22.4691 5.91552C22.3334 5.41075 22.0637 4.9959 21.6599 4.66938C21.2561 4.34443 20.7971 4.18196 20.2828 4.18196C19.7292 4.18196 19.2559 4.34285 18.8616 4.66307C18.4688 4.98328 18.2038 5.40129 18.0682 5.91552H22.4691Z" fill="white"/>
<path d="M32.525 28.1612C32.525 23.1687 33.7617 19.413 36.2382 16.897C38.7131 14.3795 41.9657 13.1207 45.9928 13.1207H46.3698V21.1134H46.0543C44.2498 21.1134 42.9074 21.6797 42.0272 22.8122C41.1455 23.9448 40.7054 25.7289 40.7054 28.1612V44.7128H32.5234V28.1612H32.525Z" fill="white"/>
<path d="M56.66 43.0463C54.1629 41.5982 52.1912 39.6265 50.7447 37.1311C49.2967 34.6356 48.5742 31.9178 48.5742 28.9806C48.5742 26.0435 49.2982 23.3273 50.7447 20.8302C52.1928 18.3348 54.1645 16.3615 56.66 14.915C59.1554 13.467 61.8732 12.7445 64.8104 12.7445C68.5015 12.7445 71.7856 13.8455 74.6596 16.0492C77.5336 18.2512 79.4533 21.0747 80.4187 24.5135H71.7335C71.019 23.3399 70.0662 22.4155 68.8706 21.7451C67.6749 21.0747 66.342 20.7388 64.875 20.7388C62.5673 20.7388 60.6366 21.5259 59.0844 23.0985C57.5323 24.6712 56.7562 26.6335 56.7562 28.9838C56.7562 31.3341 57.5323 33.2948 59.0844 34.8675C60.6366 36.4402 62.5657 37.2273 64.875 37.2273C66.26 37.2273 67.5187 36.9228 68.6513 36.314C69.7839 35.7067 70.7287 34.8564 71.4827 33.7649H80.3556C79.3492 37.1216 77.4185 39.8694 74.565 42.0099C71.7115 44.1489 68.4604 45.2199 64.8104 45.2199C61.8732 45.2199 59.157 44.4959 56.66 43.0494V43.0463Z" fill="white"/>
<path d="M27.9898 44.6617H19.9593V41.2435C19.9593 30.2538 11.0186 21.3115 0.0273438 21.3115V13.281C15.4464 13.281 27.9898 25.8245 27.9898 41.2435V44.6617Z" fill="white"/>
<path d="M11.5734 38.8751C11.5734 35.6792 8.98257 33.0884 5.78668 33.0884C2.59078 33.0884 0 35.6792 0 38.8751C0 42.0709 2.59078 44.6617 5.78668 44.6617C8.98257 44.6617 11.5734 42.0709 11.5734 38.8751Z" fill="white"/>
</svg>
